<?xml version="1.0" encoding="utf-8"?>
<!-- Generator: Adobe Illustrator 24.1.1, SVG Export Plug-In . SVG Version: 6.00 Build 0)  -->
<svg version="1.1" id="Layer_1" xmlns="http://www.w3.org/2000/svg" xmlns:xlink="http://www.w3.org/1999/xlink" x="0px" y="0px"
	 viewBox="0 0 1200 1161.28" style="enable-background:new 0 0 1200 1161.28;" xml:space="preserve">
<g>
	<g>
		<path d="M335.36,412.33h40.46l65.79,102.23l65.79-102.23h40.46v216.2h-37.99V473.48L441.61,575.4h-1.24l-67.64-101.3v154.43
			h-37.37V412.33z"/>
		<path d="M645.12,521.05v-0.62c0-4.89,0.24-9.73,0.75-14.51h-86.52v34.59h87.11C645.57,534.13,645.12,527.63,645.12,521.05z
			 M559.35,412.32v34.6h106.79c-0.06-5.9,17.31-33.44,25.81-34.6H559.35z"/>
		<path d="M666.97,521.04v-0.62c0-61.46,46.02-111.8,111.19-111.8c40.15,0,64.24,13.9,84.94,33.66l-24.4,28.11
			c-17.6-16.06-35.83-26.56-60.84-26.56c-40.77,0-71.04,33.67-71.04,75.98v0.62c0,42.31,29.96,76.6,71.34,76.6
			c26.25,0,43.55-10.5,62.08-27.8l24.4,24.71c-21.93,23.78-47.56,38.3-87.71,38.3C713.92,632.23,666.97,583.12,666.97,521.04z"/>
	</g>
	<g>
		<g>
			<path d="M169,658.75h10.51l17.1,26.57l17.1-26.57h10.51v56.18h-9.87v-40.29l-17.74,26.49h-0.32l-17.58-26.33v40.13H169V658.75z"
				/>
			<path d="M258.58,658.35h9.15l24.72,56.58h-10.43l-5.7-13.56h-26.57l-5.78,13.56h-10.11L258.58,658.35z M272.7,692.62l-9.71-22.47
				l-9.63,22.47H272.7z"/>
			<path d="M302.09,658.75h10.51l17.1,26.57l17.1-26.57h10.51v56.18h-9.87v-40.29l-17.74,26.49h-0.32L311.8,674.8v40.13h-9.71
				V658.75z"/>
			<path d="M371.76,658.75h10.51l17.1,26.57l17.1-26.57h10.51v56.18h-9.87v-40.29l-17.74,26.49h-0.32l-17.58-26.33v40.13h-9.71
				V658.75z"/>
			<path d="M438.94,687v-0.16c0-15.73,12.2-29.06,29.46-29.06c17.26,0,29.3,13.08,29.3,28.89v0.16c0,15.73-12.2,29.05-29.46,29.05
				C450.98,715.9,438.94,702.81,438.94,687z M487.34,687v-0.16c0-10.92-7.87-19.91-19.1-19.91c-11.16,0-18.94,8.83-18.94,19.74v0.16
				c0,10.92,7.87,19.9,19.1,19.9C479.56,706.75,487.34,697.92,487.34,687z"/>
			<path d="M520.5,667.9h-17.9v-9.15h45.67v9.15h-17.9v47.03h-9.87V667.9z"/>
			<path d="M558.54,658.75h9.87v23.36h26.81v-23.36h9.87v56.18h-9.87v-23.68h-26.81v23.68h-9.87V658.75z"/>
			<path d="M643.63,658.75h41.82v8.99H653.5v15.33h28.33v8.99H653.5v22.87h-9.87V658.75z"/>
			<path d="M709.77,658.35h9.15l24.72,56.58H733.2l-5.7-13.56h-26.57l-5.78,13.56h-10.11L709.77,658.35z M723.89,692.62l-9.71-22.47
				l-9.63,22.47H723.89z"/>
			<path d="M747.26,687v-0.16c0-15.97,11.96-29.06,28.89-29.06c10.43,0,16.69,3.61,22.07,8.75l-6.34,7.3
				c-4.58-4.17-9.31-6.9-15.81-6.9c-10.59,0-18.46,8.75-18.46,19.74v0.16c0,11,7.79,19.9,18.54,19.9c6.82,0,11.32-2.73,16.13-7.22
				l6.34,6.42c-5.7,6.18-12.36,9.95-22.79,9.95C759.45,715.9,747.26,703.13,747.26,687z"/>
			<path d="M822.79,667.9h-17.9v-9.15h45.67v9.15h-17.9v47.03h-9.87V667.9z"/>
			<path d="M855.46,687v-0.16c0-15.73,12.2-29.06,29.46-29.06s29.3,13.08,29.3,28.89v0.16c0,15.73-12.2,29.05-29.46,29.05
				S855.46,702.81,855.46,687z M903.85,687v-0.16c0-10.92-7.87-19.91-19.1-19.91c-11.16,0-18.94,8.83-18.94,19.74v0.16
				c0,10.92,7.87,19.9,19.1,19.9C896.07,706.75,903.85,697.92,903.85,687z"/>
			<path d="M926.17,658.75h25.04c7.06,0,12.6,2.09,16.21,5.62c2.97,3.13,4.66,7.22,4.66,12.12v0.16c0,9.23-5.54,14.77-13.32,17.02
				l15.17,21.27h-11.72l-13.81-19.58h-12.36v19.58h-9.87V658.75z M950.49,686.6c7.06,0,11.56-3.61,11.56-9.39v-0.16
				c0-6.1-4.25-9.31-11.64-9.31h-14.37v18.86H950.49z"/>
			<path d="M998.73,692.78l-22.31-34.03h11.72l15.65,24.8l15.89-24.8H1031l-22.31,33.79v22.39h-9.95V692.78z"/>
		</g>
		<g>
			<g>
				<path d="M536.41,738.85v-0.08c0-7.63,5.72-13.89,13.81-13.89c4.99,0,7.98,1.73,10.55,4.18l-3.03,3.49
					c-2.19-1.99-4.45-3.3-7.56-3.3c-5.06,0-8.82,4.18-8.82,9.44v0.08c0,5.25,3.72,9.51,8.86,9.51c3.26,0,5.41-1.3,7.71-3.45
					l3.03,3.07c-2.72,2.95-5.91,4.76-10.89,4.76C542.24,752.66,536.41,746.56,536.41,738.85z"/>
				<path d="M569.75,738.85v-0.08c0-7.52,5.83-13.89,14.08-13.89s14,6.25,14,13.81v0.08c0,7.52-5.83,13.89-14.08,13.89
					S569.75,746.41,569.75,738.85z M592.88,738.85v-0.08c0-5.22-3.76-9.51-9.13-9.51c-5.33,0-9.05,4.22-9.05,9.44v0.08
					c0,5.22,3.76,9.51,9.13,9.51C589.16,748.29,592.88,744.07,592.88,738.85z"/>
				<path d="M609.3,725.35h11.97c3.38,0,6.02,1,7.75,2.68c1.42,1.5,2.23,3.45,2.23,5.79v0.08c0,4.41-2.65,7.06-6.37,8.13l7.25,10.17
					h-5.6l-6.6-9.36h-5.91v9.36h-4.72V725.35z M620.93,738.66c3.38,0,5.52-1.73,5.52-4.49v-0.08c0-2.92-2.03-4.45-5.56-4.45h-6.87
					v9.01H620.93z"/>
				<path d="M642.8,725.35h10.59c6.29,0,10.2,3.57,10.2,8.98v0.08c0,5.98-4.8,9.17-10.74,9.17h-5.33v8.63h-4.72V725.35z M653,739.31
					c3.57,0,5.79-1.99,5.79-4.8v-0.08c0-3.18-2.26-4.79-5.79-4.79h-5.49v9.67H653z"/>
			</g>
			<g>
				<rect x="169" y="735.36" width="356.43" height="6.83"/>
			</g>
			<g>
				<rect x="674.57" y="735.36" width="356.43" height="6.83"/>
			</g>
		</g>
	</g>
</g>
</svg>
